<svg xmlns="http://www.w3.org/2000/svg" width="2153" height="489" viewBox="0 0 2153 489">
  <path fill="#F5FAFA" d="M270.3,388.3 L352.8,388.3 L436.9,108.1 L356.5,108.1 L306.7,306.9 L253.6,108.1 L184,108.1 L130.4,306.9 L81.1,108.1 L0.7,108.1 L84.3,388.3 L166.8,388.3 L218.8,208.8 L270.3,388.3 L270.3,388.3 Z M441.2,249 C441.2,333.1 498.5,395.3 588.6,395.3 C658.3,395.3 695.8,353.5 706.5,333.7 L657.7,296.7 C649.7,308.5 627.7,331 589.6,331 C548.3,331 518.3,304.2 516.7,266.7 L714,266.7 C714.5,261.3 714.5,256 714.5,250.6 C714.5,159 665.2,101.1 578.4,101.1 C498.5,101.1 441.2,164.3 441.2,249 L441.2,249 Z M518.9,218.4 C522.1,186.3 544.6,161.6 579.5,161.6 C613.3,161.6 637.9,184.1 639.5,218.4 L518.9,218.4 Z M742.4,388.3 L812.1,388.3 L812.1,359.4 C819.6,368.5 847.5,395.3 895.2,395.3 C975.6,395.3 1032.4,334.8 1032.4,248.5 C1032.4,161.7 979.9,101.2 899.5,101.2 C851.3,101.2 823.4,128 816.4,137.6 L816.4,0.9 L742.5,0.9 L742.5,388.3 L742.4,388.3 Z M814.2,249 C814.2,196.5 845.3,166.5 886,166.5 C928.9,166.5 957.8,200.3 957.8,249 C957.8,298.8 927.8,329.9 886,329.9 C841,329.9 814.2,293.4 814.2,249 L814.2,249 Z M1061.2,488.5 L1135.1,488.5 L1135.1,359.3 C1142.1,368.4 1169.9,395.2 1218.2,395.2 C1298.6,395.2 1351.1,334.7 1351.1,247.9 C1351.1,162.2 1294.3,101.1 1213.9,101.1 C1166.2,101.1 1138.3,127.9 1130.8,137.5 L1130.8,108 L1061.1,108 L1061.1,488.5 L1061.2,488.5 L1061.2,488.5 Z M1133,247.4 C1133,202.9 1159.8,166.5 1204.8,166.5 C1246.6,166.5 1276.6,197.6 1276.6,247.4 C1276.6,296.2 1247.7,329.9 1204.8,329.9 C1164.1,329.9 1133,299.9 1133,247.4 L1133,247.4 Z M1364.5,301.5 C1364.5,360.4 1412.7,395.3 1469.5,395.3 C1501.7,395.3 1523.1,385.7 1537.6,370.1 L1542.4,388.3 L1607.8,388.3 L1607.8,210.9 C1607.8,148.2 1581,101.1 1491,101.1 C1448.1,101.1 1405.8,117.2 1380.6,134.3 L1408.5,184.7 C1429.4,174 1455.1,164.9 1483,164.9 C1515.7,164.9 1533.9,181.5 1533.9,206.2 L1533.9,224.4 C1523.7,217.4 1501.7,208.9 1473.3,208.9 C1407.9,208.8 1364.5,246.3 1364.5,301.5 L1364.5,301.5 Z M1438.4,299.3 C1438.4,276.3 1458.2,260.2 1486.6,260.2 C1515,260.2 1535.4,274.7 1535.4,299.3 C1535.4,322.9 1515,337.9 1487.2,337.9 C1459.4,337.9 1438.4,322.4 1438.4,299.3 L1438.4,299.3 Z M1787.3,329.9 C1740.7,329.9 1707.5,296.1 1707.5,248.5 C1707.5,203.5 1737,166.5 1784.7,166.5 C1816.3,166.5 1837.8,182 1850.1,193.3 L1871,131.1 C1852.8,117.2 1823.8,101.1 1782.6,101.1 C1697.4,101.1 1633.6,163.8 1633.6,249 C1633.6,334.2 1695.8,395.3 1783.1,395.3 C1823.8,395.3 1854.4,378.2 1870.4,365.3 L1850.6,304.8 C1838.2,314.9 1815.7,329.9 1787.3,329.9 L1787.3,329.9 Z M1898.2,388.3 L1972.1,388.3 L1972.1,243.6 L2065.9,388.3 L2152.7,388.3 L2046.6,235 L2145.2,108 L2062.1,108 L1972.1,225.9 L1972.1,0.9 L1898.2,0.9 L1898.2,388.3 L1898.2,388.3 Z"/>
</svg>
